<?xml version="1.0" encoding="UTF-8"?>
<svg id="Layer_2" xmlns="http://www.w3.org/2000/svg" version="1.1" viewBox="0 0 237.1 237.1">
  <!-- Generator: Adobe Illustrator 29.6.1, SVG Export Plug-In . SVG Version: 2.1.1 Build 9)  -->
  <defs>
    <style>
      .st0 {
        fill: #9ade1a;
      }

      .st1 {
        fill-rule: evenodd;
      }
    </style>
  </defs>
  <path class="st1" d="M118.6,0C23.7,0,0,23.7,0,118.6s23.7,118.6,118.6,118.6,118.6-23.7,118.6-118.6S213.4,0,118.6,0h0Z"/>
  <g>
    <path class="st0" d="M114.4,63.5l33.7,68.4-1.3,13.7-18.5,5.9h-1.8c0-.1-18-37.6-18-37.6l2.2,28.4-1.3,14.6-17.7,5.3-22.6-24,6.8,16.1-1.2,13.6-20.5,5.8-30.2-69.2c-.1-4.9.5-10.2,1.3-15l26.7-7.9,35.5,36.2-1.3-29.3c-.7-5.4.4-11.3.7-16.8l1.2-1c3.4-.4,25-8,26.3-7.2h0ZM90.5,106.2c7.4-13.6,16.5-26.3,23.8-39.8l-.9-1.2-23,37.3c-.3.8-.8,3.2,0,3.7ZM111,65.5l-1.9.4c-6.6,10.4-13.3,20.8-19.4,31.5v2.8s21.4-34.7,21.4-34.7h0ZM105.9,66.8c-.3-.2-3.3,1-3.6,1.7l-12.7,20.6-.3,4.6,16.7-26.9h0ZM99.5,69c-1.1,0-2.2.3-2.9,1.1-.6.7-7.3,11.5-7.5,12.2-.4,1.3-.2,2.5-.2,3.8l10.7-17.1h0ZM115.7,69c-1.1-.2-1.1.9-1.6,1.6-8.3,12.2-15.2,25.9-23.4,38.2l-.2,3.8,25.6-41.8s-.4-1.8-.4-1.8ZM89.2,78.8l4.7-8.6c-.8.6-2.2.5-2.9,1-.3.2-2.6,4.3-2.6,4.8,0,.3.3,2.7.8,2.8ZM108,92.1l10.1-17.1-.9-2.1-10.2,16.8c-.4.5,0,3.2,1,2.4ZM119.6,77.1c-.7-.7-.9.5-1.1.8-3.5,5-6.2,11-9.7,16l.6,2.4c.3.2,1-.9,1.2-1.2,1.8-2.5,8.2-12.7,9.2-15.2.3-.7.4-2.4-.1-2.9ZM121.7,80.9c-1-.2-.7.1-.9.6-3.6,5.5-6.4,11.5-10,17l.7,2.6,10.8-17.7-.6-2.4ZM51.3,83.1l-15.9,26.5.9,3,16.8-27.7-1.9-1.8h0ZM48.1,83.9l-3.4,1.5c-1.2,3.3-11.7,18.1-11.6,20.1,0,.8.8,1.5.9,2.4l14.1-23.9h0ZM113.6,105.8c.3.2,1-.9,1.2-1.2,3.5-4.9,6.2-11.5,9.6-16.5l-1.2-2.9-10.3,18,.7,2.6h0ZM42.1,85.7c-.3-.2-2.8.8-3.2,1.3-1.1,1.2-6.2,10.2-7.2,12.1-.7,1.5-1,2.2.3,3.7,0,0,10.1-17.1,10.1-17.1ZM38.7,116.9l16.8-28.4c.7-1.1.1-1.8-.8-2.4l-17,28.4v2.2c0,0,1,.2,1,.2h0ZM36.5,87.4c-1.2.2-2.6.6-3.4,1.6-.4.5-4.1,6.6-4.1,7-.1.7.7,1.4.7,2.2l6.8-10.7h0ZM31,89.1c-2.9.2-4.4,1.9-3.4,4.7,1.1.2.7-.3,1.1-.8.9-1.2,1.5-2.6,2.3-3.9ZM40.4,120.7c1.2-4.2,18.3-28.8,17.9-30.5,0-.4-.7-.8-1-1.1l-17.7,29.4v2.1s.8.2.8.2ZM115.7,110l10.9-17.6-.7-2.5-10.9,17.6.7,2.5ZM60.5,91.6l-1.2.7-18.2,30.2.5,2.8,19.5-32.1s-.7-1.7-.7-1.7ZM91.3,119c4.3-8.4,10.2-16.2,14.6-24.6l-.4-2.3-14.3,23.1c-.4.7-.2,1.5-.2,2.3,0,.5-.3,1.6.4,1.5ZM128.1,94.2c-1.1-.2-.7.3-1.1.8-3.3,5.5-6.4,11.2-9.7,16.8l.8,2.4,10.2-17.7v-2.4c-.1,0-.1,0-.1,0ZM62.2,94.6l-7.1,12.4c.6,1.7,1.1,1.7,2,.3,1.1-1.6,6.3-9.8,6.6-11,.2-1-.6-1.8-1.5-1.7h0ZM65.5,97.6l-7.4,12.6,1,1.1,7.8-12.4-1.3-1.3h0ZM120.4,118.6l10.1-18c.4-1-.2-1.9-.9-2.6l-10.3,18c-.3.4.2,3.4,1.1,2.6ZM106.3,98.5c-1.2-.3-.7.3-1.1.8-6.8,10.2-15.9,24.4-21.3,35.2-.4.9-1.4,2-.1,2.9.6.1,1.1-.7,1.4-1.1,7.6-10.8,13.6-24.4,21-35.5v-2.2c0,0,0,0,0,0ZM67.8,100.2l-7.1,12.4c.3,1.8.9,2.4,2,.8,2.4-3.5,4-7.6,6.6-11,.7-.8-.9-2.6-1.5-2.2h0ZM131.6,102.3l-10.2,18.3,1,2.7,10.3-18c.3-.8-.3-2.6-1.1-3ZM70.8,103.2c-.5,2.1-7.4,11.9-7.2,13,.3,1.3,1.3,1.4,2.2.1,2.4-3.4,4.2-7.5,6.6-11,.6-.7-1.4-2.3-1.5-2.2ZM106.3,104.9l-20.5,34.4,1,1.1,19.9-33.6-.4-1.9h0ZM73.8,106.2l-7.2,12.7,1.4,1.8,7.4-12.3c.3-.8-.9-2.8-1.6-2.2ZM134.6,107l-.9.6c-.9,2.8-10.3,16.8-10.1,18.4,0,.6.8,1.3.8,2l10.9-18.4-.7-2.5ZM44.2,129.3l10.6-18.3-1-2.2-10.8,18.3.3,2,.9.2h0ZM71.6,123.7c.4-2.4,7.2-11.4,6.8-13-.4-1.4-1.3-1.4-2.2-.2s-6.5,10.8-6.6,11.4c-.1.7,1.5,2.1,2,1.7ZM90,143l16.7-28.5v-3.1s-18.1,29.6-18.1,29.6l-.3,1.6,1.7.4h0ZM136.7,111.7c-1-.2-.7.1-.9.6-3.6,5.6-6.3,12.3-10,17.8l.7,2.6,10.8-18.5-.6-2.4h0ZM73.4,126.7c.6.4,1.1-.6,1.4-1,2.5-3.2,4.2-8,6.7-11.3v-.7c-1.8-2.7-1.7,0-2.8,1.3-1,2.7-4.8,7.1-5.5,9.5-.1.5,0,2,.3,2.1h0ZM45.1,133.6c.7.5,1.6-1.3,1.9-1.7,3.5-5.4,6.2-11.3,9.9-16.7l-.6-2.1-11.2,18.1c-.5.4,0,2.3.1,2.4h0ZM83,115.6c-.9,1.8-7.6,12-7.4,13,0,.4.7.8,1,1.1l7.7-12.8-1.3-1.3ZM138.9,116c-1-.1-1.6,1.7-2.1,2.4-3,5.2-5.5,10.6-8.8,15.7-.5.9,0,1.8.8,2.4l10.3-18.4s-.2-2.1-.2-2.1ZM47.2,138.3l11.4-18.4c.4-1-.2-1.9-.9-2.6-1.3,3.7-10.9,16.2-10.9,19,0,.7.4,1.3.5,1.9ZM92.6,146l15-26.3-.4-1.9-15.9,26.2c-.8.8.8,2.4,1.4,2ZM86.2,118.2c-1.2-.3-.7.4-1.1.8-1.6,2.4-6.1,9.3-6.9,11.6-.2.7.1,1,.2,1.7,1.1.3.7-.3,1.1-.8,1.2-1.6,6.4-9.8,6.8-11.2.3-.9,0-1.3-.2-2.1h0ZM131.1,136.1c1,0,2-.3,2.5-1.1l7.1-13-.2-2.6-9.4,16.7h0ZM88.8,120.7c-1.1-.2-.8.3-1.1.8-1.2,1.8-6.3,9.7-6.8,11.2-.3.9,0,1.3.2,2.1,1.1.2.7-.3,1.1-.8,1.6-2.2,5.6-8.7,6.6-11,.4-1,.4-1.3,0-2.3ZM49.8,142.5l10.8-18.5-.5-2.4-11.2,18.5c-.4.5,0,3.2,1,2.4h0ZM138.3,133.9l4.8-8.8-1-1.8-6.2,10.9c-.4,1.2,2.3-.2,2.5-.3h0ZM93.9,147.7c1.7-.5,2.3-.6,3.3-2,1.8-2.3,9.5-15.3,10.4-17.8.5-1.3.4-2.4.3-3.7l-14.1,23.5h0ZM61.4,125.9c-.7,3.2-11.3,18-10.9,19.7,0,.5.5.9.9,1.2l11-18.5c.8-.7-.6-2.7-1-2.4h0ZM141,133.1c1.6.6,4.1-3.2,4.1-4.1,0-.5-.8-1.3-.7-1.9-.3-.3-3.7,5.7-3.4,6ZM63.9,130.6c-1-.2-.7.2-1,.6-3.7,5.3-6.6,12.1-10.3,17.5-.5.6.3,2.9.8,2.9l11-18.5-.5-2.4h0ZM102.3,145c.4-.4,5.8-9.6,5.9-10.1.4-1.3.2-2.6.2-3.9l-9,14.8c.6.4,2.5-.4,2.9-.8h0ZM55.8,156.7c.8-3.1,11.2-18.1,10.9-19.7,0-.4-.9-1.9-1.3-2.1l-10.7,18.8c-.5.6.6,3.3,1.1,3h0ZM108.8,142.5c.3-.4.1-2.4,0-3.1,0-.5.3-1.6-.4-1.5l-3,6c.4.4,3.2-1.1,3.3-1.4h0ZM68.2,140l-11.5,18.8,3-.7c1.1-3.3,8.9-13.6,9-16.2,0-.7-.4-1.3-.4-1.9ZM70.4,144.7l-1.4,1-6.3,11.4,2.6-.7,5.5-9.4-.4-2.2h0ZM72.1,149l-.9.6-3.3,6.3c1.5-.1,2.5-.8,3.3-2,1.2-1.6,2-3.1.9-4.9h0Z"/>
    <g>
      <path class="st0" d="M175.6,136.9l-18.3,5.5-1.2-.3-23.9-50,1.1-14.1,17.3-4.8c1.4-.1,3.1,5.7,3.4,5.6,2.2-6.3,6.6-10.2,13.1-11.8,1.2-.3,3-1.2,4.1-.2l7,14.4-1.2,13.6c-.7.9-2.4.5-3.5.8-1.5.4-8.6,2.5-8.5,4.2l11.4,22.8-.8,14.2h0ZM148.7,107.9l22.1-38.1c.4-.5-.5-2-.9-2.1-.7-.2-3.2,4.4-3.7,5.3-6.3,10.5-11.7,21.6-18.1,32,0,0,.6,3,.6,3ZM166.2,68.5l-3.2,1.7-17.3,31.3,1,1.6,19.5-34.6h0ZM167.9,83l5.1-8.9-.7-2.6-7.3,12.2c-.5,1.4,2.7-.6,2.9-.8ZM149.1,74.9c-2.9-.1-3.5,1.9-4.8,4-.7,1.2-4.9,8.1-5,8.7-.2.8.4,1.7,1,2.2l8.8-15h0ZM151.3,75.8c-1-.2-.7.1-.9.6-3.1,4.9-5.5,10.8-8.8,15.6l.8,2.7,9.5-16-.6-2.9h0ZM138,85.6c.9-.9,5.9-9,5.6-9.4-.8.6-2.5.5-3,1.1-.2.3-3.1,5.8-3.2,6.1-.1.8.7,1.4.7,2.2h0ZM174.4,76.2c-1-.2-.7.2-1,.5-1.2,1.5-1.6,3.5-2.9,5,3,.4,5.4-3,3.9-5.6h0ZM138.4,77.9l-3.2,1.3.7,2.6,2.6-3.8h0ZM144.4,98.9l9.5-16.4-.6-2.4-9.6,16.3.7,2.5ZM151.7,112.6l9.5-17.2.3-4.6-11.4,19.2c-.2.6,1.1,2.8,1.5,2.6h0ZM153,116.4l10.1-16.7-.2-2.5c-1.4,2-10.6,16.7-10.6,17.8,0,.4.8.9.7,1.5ZM154.7,120.3l9.9-16.4v-2.4c-.4-.2-1.5,1.7-1.7,2-1.8,2.9-7.5,11.7-8.3,14.4-.3,1.1-.2,1.4.1,2.4h0ZM157.2,123.7l9.2-16.2-.3-2.6-10,16.8v1.8c.1,0,1,.2,1,.2ZM159,127.6c.7-2.8,10-16,9.7-17.6-.1-.5-.5-.9-.9-1.2l-9.9,16.7.2,1.9.9.2h0ZM161.5,126.7c1.6,1.4,4.2-3.8,4.8-4.8.8-1.3,3.8-6.1,4-7.1.3-1.1,0-1.6-.2-2.6l-8.6,14.5h0ZM169.1,124.5c.2-.2,3.3-5.6,3.4-5.9.2-.8-.3-1.6-.9-2.1l-5.4,8.8c.5.4,2.6-.5,2.9-.8ZM174.8,122.8l-1.1-2.6-1.9,3.4,3-.9Z"/>
      <path class="st0" d="M212,125.8c-2.5.6-17.9,6.3-19.2,5.5-1.5-.9-6.7-14.5-8.3-16.9l1.3-13.8c.6-.6,1.3-.7,2-1,3-1.2,12.2-4.1,15.2-4.5.6,0,1.2-.3,1.8.1l8.4,16.8-1.3,13.7h0ZM203.3,96.4c-1.2.4-1.7,1.4-2.3,2.4-2.7,4.2-4.6,9.3-7.5,13.5-.6,1.1,0,2.1.8,2.9l10.1-18.2-1-.6h0ZM192.4,110.9l6.9-13.3c-1,.5-2.3.4-3.2,1.3-.4.4-4.3,7.5-4.6,8.2-.5,1.3-.4,2.9.9,3.7h0ZM190.2,105.8l3-6.4c-2.4,0-6.5,5.6-3,6.4ZM196.2,116.4l3.4-1.6,6.7-12.6c.4-1-.2-1.9-.9-2.6l-9.2,16.7h0ZM204.7,113.8c.3-.3,3.8-6.6,3.9-7.1.2-1.1-.2-1.9-1-2.7l-5.8,10.5c.6.4,2.5-.4,2.9-.8h0ZM210.3,108.8c-1.1-.2-.7.3-1.1.8-.8,1.1-1.3,2.3-1.9,3.5,2.4,0,4.1-2,3-4.3Z"/>
    </g>
  </g>
</svg>