<?xml version="1.0" encoding="UTF-8"?>
<svg id="Layer_2" data-name="Layer 2" xmlns="http://www.w3.org/2000/svg" viewBox="0 0 237.12 237.12">
  <defs>
    <style>
      .cls-1 {
        fill: #9ade1a;
        fill-rule: evenodd;
      }
    </style>
  </defs>
  <g id="Layer_1-2" data-name="Layer 1">
    <g>
      <path class="cls-1" d="M118.56,0C23.71,0,0,23.71,0,118.56s23.71,118.56,118.56,118.56,118.56-23.71,118.56-118.56S213.41,0,118.56,0h0Z"/>
      <g>
        <path d="M114.39,63.46l33.69,68.38-1.29,13.72-18.53,5.88-1.84-.1-17.96-37.45,2.15,28.43-1.26,14.61-17.72,5.32-22.56-23.97,6.83,16.08-1.23,13.6-20.54,5.78-30.24-69.24c-.15-4.87.48-10.18,1.3-14.98l26.74-7.94,35.54,36.17-1.28-29.3c-.71-5.43.39-11.29.74-16.81l1.15-.99c3.37-.38,24.98-8,26.3-7.17ZM90.48,106.17c7.37-13.56,16.51-26.27,23.78-39.82l-.88-1.25-22.99,37.34c-.3.78-.85,3.24.09,3.73ZM111.03,65.54l-1.95.4c-6.62,10.36-13.32,20.83-19.42,31.5l-.02,2.75,21.4-34.65ZM105.89,66.82c-.26-.25-3.35.99-3.62,1.73l-12.74,20.64-.33,4.59,16.69-26.95ZM99.47,68.96c-1.13,0-2.17.26-2.94,1.12-.6.67-7.3,11.48-7.52,12.16-.42,1.29-.22,2.52-.23,3.83l10.7-17.11ZM115.73,68.96c-1.05-.25-1.13.9-1.6,1.59-8.27,12.21-15.22,25.89-23.41,38.22l-.23,3.82,25.6-41.81-.36-1.82ZM89.19,78.79l4.71-8.55c-.76.59-2.25.53-2.87.98-.32.23-2.62,4.31-2.64,4.77-.01.32.26,2.71.8,2.8ZM108.02,92.06l10.11-17.1-.9-2.14-10.18,16.81c-.42.5.04,3.23.97,2.43ZM119.58,77.09c-.7-.66-.91.52-1.1.8-3.52,4.98-6.17,10.99-9.71,16.02l.55,2.43c.26.2,1-.86,1.2-1.15,1.82-2.53,8.24-12.73,9.17-15.23.27-.73.42-2.38-.11-2.87ZM121.72,80.94c-1-.21-.68.14-.95.55-3.56,5.48-6.39,11.52-10,16.98l.69,2.58,10.81-17.69-.55-2.42ZM51.32,83.07l-15.89,26.52.9,2.99,16.85-27.67-1.86-1.85ZM48.1,83.93l-3.43,1.49c-1.16,3.27-11.66,18.08-11.56,20.08.05.83.84,1.54.87,2.39l14.12-23.95ZM113.6,105.75c.26.2,1-.86,1.2-1.15,3.52-4.88,6.16-11.47,9.6-16.53l-1.18-2.86-10.32,17.96.69,2.58ZM42.11,85.65c-.31-.25-2.76.84-3.19,1.3-1.11,1.18-6.25,10.21-7.16,12.1-.72,1.51-1.04,2.25.29,3.71l10.06-17.11ZM38.68,116.87l16.81-28.36c.66-1.08.13-1.75-.75-2.43l-17.02,28.36.1,2.19.87.25ZM36.54,87.36c-1.22.16-2.57.61-3.36,1.55-.39.46-4.07,6.57-4.15,6.96-.15.72.71,1.42.67,2.17l6.84-10.69ZM30.98,89.07c-2.88.19-4.42,1.86-3.42,4.7,1.09.24.74-.3,1.1-.8.87-1.22,1.54-2.62,2.32-3.9ZM40.39,120.72c1.21-4.16,18.27-28.79,17.91-30.53-.09-.45-.71-.77-1-1.12l-17.73,29.36-.04,2.05.86.24ZM115.74,110.03l10.92-17.56-.66-2.54-10.92,17.56.66,2.54ZM60.51,91.63l-1.21.71-18.16,30.23.55,2.85,19.48-32.09-.66-1.7ZM91.33,119.01c4.32-8.45,10.15-16.21,14.55-24.61l-.42-2.33-14.31,23.12c-.38.74-.24,1.54-.25,2.32,0,.49-.29,1.61.43,1.5ZM128.15,94.2c-1.14-.24-.73.31-1.06.84-3.35,5.54-6.45,11.25-9.74,16.82l.75,2.43,10.17-17.67-.12-2.44ZM62.24,94.63l-7.11,12.38c.6,1.65,1.1,1.7,2.05.31,1.07-1.56,6.32-9.82,6.6-10.99.24-.98-.57-1.76-1.54-1.71ZM65.46,97.62l-7.43,12.56,1,1.12,7.75-12.38-1.31-1.3ZM120.44,118.58l10.1-17.97c.39-.98-.2-1.91-.89-2.56l-10.31,17.97c-.3.4.15,3.38,1.1,2.56ZM106.32,98.48c-1.16-.26-.73.35-1.06.85-6.76,10.25-15.95,24.39-21.27,35.23-.45.92-1.39,2.01-.13,2.85.64.14,1.13-.72,1.42-1.14,7.56-10.81,13.56-24.44,20.95-35.54l.1-2.25ZM67.8,100.19l-7.09,12.37c.32,1.76.88,2.44,2.03.76,2.4-3.5,4.04-7.56,6.6-10.98.7-.84-.9-2.61-1.53-2.15ZM131.58,102.33l-10.2,18.29.99,2.66,10.31-17.96c.31-.8-.27-2.6-1.1-2.99ZM70.8,103.18c-.46,2.13-7.43,11.91-7.22,12.99.27,1.35,1.31,1.37,2.15.14,2.36-3.45,4.18-7.53,6.61-10.98.56-.69-1.36-2.27-1.54-2.15ZM106.31,104.9l-20.47,34.38,1,1.12,19.9-33.6-.42-1.9ZM73.79,106.18l-7.23,12.7,1.44,1.84,7.42-12.29c.31-.77-.92-2.77-1.63-2.25ZM134.57,107.03l-.95.55c-.92,2.81-10.33,16.85-10.11,18.38.09.61.85,1.29.8,2.03l10.92-18.42-.66-2.54ZM44.24,129.28l10.63-18.29-1-2.24-10.84,18.29.33,1.99.87.25ZM71.64,123.72c.43-2.42,7.19-11.43,6.8-12.96-.36-1.38-1.35-1.45-2.17-.18s-6.48,10.75-6.59,11.41c-.11.72,1.51,2.06,1.96,1.73ZM90.04,142.97l16.69-28.51.02-3.14-18.07,29.64-.31,1.56,1.68.45ZM136.71,111.74c-1-.22-.68.13-.95.55-3.59,5.55-6.27,12.29-10,17.84l.69,2.58,10.81-18.53-.55-2.43ZM73.36,126.71c.6.45,1.11-.63,1.38-.97,2.54-3.25,4.15-7.97,6.69-11.33l.02-.66c-1.8-2.65-1.67-.1-2.86,1.29-.99,2.68-4.81,7.09-5.48,9.53-.14.51.05,1.98.26,2.14ZM45.11,133.56c.66.52,1.6-1.3,1.89-1.74,3.5-5.39,6.22-11.34,9.87-16.65l-.64-2.14-11.23,18.1c-.49.43-.06,2.29.11,2.43ZM83,115.59c-.95,1.75-7.62,12.04-7.43,12.99.09.45.71.78,1,1.12l7.74-12.81-1.31-1.3ZM138.85,116.02c-.99-.14-1.62,1.69-2.05,2.44-3.01,5.16-5.54,10.62-8.76,15.66-.53.93.07,1.78.76,2.43l10.28-18.43-.23-2.1ZM47.25,138.26l11.38-18.39c.39-.98-.2-1.92-.9-2.57-1.35,3.7-10.87,16.17-10.94,19.02-.02.67.42,1.28.46,1.94ZM92.61,145.96l15.01-26.3-.45-1.93-15.95,26.23c-.84.81.78,2.43,1.39,2ZM86.19,118.16c-1.16-.26-.73.36-1.05.85-1.58,2.37-6.08,9.29-6.86,11.59-.24.7.14,1.04.22,1.68,1.11.26.74-.33,1.1-.81,1.16-1.55,6.37-9.79,6.82-11.2.29-.91-.03-1.28-.22-2.1ZM131.15,136.12c.98.08,1.97-.3,2.51-1.12l7.15-12.99-.25-2.57-9.41,16.68ZM88.76,120.72c-1.09-.24-.75.3-1.1.8-1.24,1.75-6.32,9.67-6.81,11.21-.29.91.03,1.28.22,2.1,1.09.24.74-.3,1.1-.8,1.59-2.25,5.61-8.66,6.56-11.02.4-1,.4-1.27.03-2.29ZM49.81,142.54l10.83-18.53-.55-2.43-11.24,18.53c-.44.5.04,3.22.96,2.42ZM138.32,133.88l4.75-8.77-1.01-1.82-6.2,10.92c-.41,1.17,2.29-.17,2.46-.33ZM93.91,147.68c1.73-.46,2.26-.59,3.34-2,1.76-2.3,9.51-15.32,10.45-17.79.48-1.28.36-2.42.33-3.73l-14.12,23.53ZM61.38,125.86c-.65,3.18-11.3,17.96-10.94,19.71.1.46.52.92.87,1.24l11.03-18.53c.75-.65-.6-2.7-.96-2.43ZM141,133.13c1.59.61,4.08-3.24,4.13-4.07.03-.48-.8-1.26-.71-1.92-.33-.26-3.66,5.74-3.42,5.99ZM63.93,130.56c-1.02-.24-.69.19-.95.56-3.71,5.34-6.62,12.09-10.29,17.54-.54.59.29,2.86.76,2.85l11.03-18.52-.55-2.43ZM102.35,144.99c.45-.38,5.75-9.55,5.92-10.13.38-1.27.15-2.58.19-3.87l-8.98,14.76c.56.38,2.5-.45,2.88-.77ZM55.8,156.66c.83-3.06,11.22-18.1,10.93-19.71-.07-.41-.95-1.93-1.29-2.1l-10.74,18.82c-.5.65.61,3.33,1.1,2.99ZM108.8,142.46c.26-.45.12-2.41.09-3.13-.02-.52.33-1.59-.42-1.49l-3,5.98c.37.35,3.17-1.08,3.33-1.37ZM68.22,139.98l-11.55,18.82,3.02-.73c1.14-3.28,8.95-13.6,8.98-16.16,0-.67-.37-1.28-.45-1.93ZM70.36,144.68l-1.36.98-6.33,11.42,2.6-.72,5.46-9.45-.36-2.24ZM72.07,148.96l-.95.55-3.32,6.29c1.52-.1,2.5-.81,3.35-1.99,1.16-1.61,2-3.09.92-4.85Z"/>
        <g>
          <path d="M175.61,136.92l-18.26,5.54-1.16-.34-23.95-50.02,1.11-14.09,17.26-4.8c1.38-.11,3.13,5.72,3.43,5.58,2.2-6.33,6.6-10.16,13.06-11.76,1.22-.3,3.02-1.17,4.07-.22l6.97,14.44-1.16,13.63c-.7.88-2.37.51-3.49.79-1.51.38-8.64,2.5-8.47,4.22l11.39,22.85-.81,14.18ZM148.7,107.89l22.05-38.1c.41-.52-.47-2.01-.87-2.11-.73-.18-3.18,4.38-3.71,5.27-6.28,10.51-11.66,21.57-18.12,31.98l.65,2.96ZM166.25,68.53l-3.19,1.73-17.28,31.33,1,1.59,19.47-34.64ZM167.85,82.96l5.08-8.86-.69-2.58-7.27,12.2c-.51,1.45,2.72-.6,2.88-.76ZM149.13,74.95c-2.91-.11-3.52,1.93-4.78,3.99-.74,1.2-4.85,8.07-4.99,8.74-.18.85.39,1.69,1,2.24l8.78-14.96ZM151.26,75.8c-1-.22-.68.13-.95.55-3.14,4.86-5.48,10.78-8.81,15.6l.79,2.67,9.53-15.96-.55-2.86ZM138,85.64c.89-.88,5.91-8.99,5.56-9.41-.75.6-2.52.54-3.02,1.14-.22.26-3.13,5.76-3.19,6.1-.14.75.69,1.4.66,2.17ZM174.38,76.23c-.98-.25-.7.19-.97.54-1.17,1.49-1.65,3.54-2.87,5.02,3,.38,5.42-2.96,3.85-5.56ZM138.42,77.95l-3.24,1.27.68,2.58,2.56-3.85ZM144.42,98.9l9.53-16.39-.55-2.43-9.64,16.28.66,2.54ZM151.69,112.59l9.52-17.23.32-4.59-11.36,19.21c-.18.6,1.15,2.85,1.51,2.6ZM152.98,116.44l10.05-16.71-.21-2.54c-1.41,2.02-10.62,16.71-10.55,17.75.03.38.81.92.71,1.5ZM154.7,120.29l9.95-16.39-.11-2.43c-.3-.24-1.4,1.66-1.62,2.01-1.81,2.91-7.49,11.74-8.33,14.38-.34,1.08-.19,1.41.12,2.44ZM157.25,123.72l9.25-16.25-.26-2.57-9.96,16.82.11,1.76.86.24ZM158.97,127.57c.68-2.83,9.98-16.02,9.66-17.57-.1-.46-.52-.92-.87-1.24l-9.85,16.71.2,1.86.87.25ZM161.54,126.71c1.55,1.37,4.16-3.81,4.78-4.84.78-1.3,3.76-6.13,4.03-7.13.29-1.08,0-1.58-.25-2.57l-8.55,14.54ZM169.14,124.47c.25-.23,3.26-5.55,3.36-5.87.24-.85-.27-1.58-.9-2.14l-5.35,8.76c.49.39,2.62-.5,2.89-.75ZM174.81,122.85l-1.07-2.56-1.93,3.42,3-.86Z"/>
          <path d="M211.96,125.77c-2.52.62-17.91,6.26-19.18,5.46-1.49-.95-6.7-14.54-8.32-16.87l1.26-13.75c.55-.58,1.33-.69,2.03-.97,3.04-1.18,12.22-4.08,15.21-4.5.63-.09,1.23-.27,1.82.11l8.45,16.79-1.27,13.71ZM203.34,96.39c-1.23.36-1.69,1.4-2.33,2.39-2.72,4.19-4.65,9.32-7.47,13.52-.6,1.05-.09,2.11.75,2.86l10.06-18.16-1.01-.6ZM192.36,110.88l6.85-13.26c-1.02.54-2.33.38-3.19,1.3-.42.44-4.32,7.46-4.61,8.24-.48,1.26-.36,2.94.95,3.73ZM190.22,105.75l3-6.42c-2.44,0-6.54,5.55-3,6.42ZM196.22,116.45l3.36-1.56,6.73-12.57c.39-.97-.18-1.92-.89-2.56l-9.2,16.68ZM204.66,113.76c.31-.26,3.83-6.63,3.9-7.05.18-1.09-.2-1.94-1-2.67l-5.77,10.48c.56.38,2.5-.45,2.88-.77ZM210.33,108.75c-1.09-.25-.74.3-1.1.8-.77,1.08-1.3,2.3-1.89,3.47,2.4,0,4.05-2.01,2.99-4.27Z"/>
        </g>
      </g>
    </g>
  </g>
</svg>